<?xml version="1.0" standalone="no"?>
<svg xmlns="http://www.w3.org/2000/svg" viewBox="0 0 123.633 36" width="123.633" height="36"><g fill="#fea701" color="#fea701" transform="translate(0 5.320754716981131) scale(0.5283019)"><svg width="53.0" height="48.0" x="0.0" y="0.0" viewBox="0 0 53 48"><path fill="currentColor" fill-rule="evenodd" d="M14.18 0L0 8.432v16.864l14.18 8.435L24 27.846v11.72L38.181 48l14.181-8.434V22.704l-14.181-8.433-9.818 5.883V8.432L14.18 0zM4.364 22.814V10.915l9.817-5.84L24 10.915v11.853l-9.819 5.885-9.817-5.839zm23.999 14.27V25.23l9.818-5.884 9.818 5.837v11.9L38.18 42.92l-9.818-5.837z"></path></svg></g><path fill="#fe4e01" fill-rule="nonzero" d="M0 22.25L3.69 2.24L7.18 2.24L10.89 22.25L7.82 22.25L7.27 18.67L3.61 18.67L3.08 22.25L0 22.25ZM3.96 16.38L6.91 16.38L5.51 6.41L5.38 6.41L3.96 16.38ZM12.63 22.25L12.63 6.12L14.93 6.12L15.19 7.84L15.19 7.85Q15.54 7.30 15.94 6.93Q16.34 6.56 16.76 6.34Q17.19 6.12 17.64 6.02Q18.09 5.93 18.54 5.93L18.54 5.93Q19.49 5.93 20.14 6.39Q20.80 6.84 21.14 7.76L21.14 7.76Q21.49 7.23 21.88 6.88Q22.28 6.53 22.70 6.32Q23.12 6.11 23.55 6.02Q23.99 5.93 24.43 5.93L24.43 5.93Q25.84 5.93 26.61 6.92Q27.38 7.91 27.38 9.89L27.38 9.89L27.38 22.25L24.41 22.25L24.41 10.00Q24.41 9.47 24.33 9.11Q24.25 8.74 24.08 8.52Q23.92 8.30 23.66 8.20Q23.40 8.10 23.04 8.10L23.04 8.10Q22.63 8.10 22.22 8.40Q21.81 8.70 21.47 9.22L21.47 9.22Q21.48 9.33 21.48 9.43Q21.48 9.54 21.48 9.64L21.48 9.64L21.48 22.25L18.52 22.25L18.52 10.00Q18.52 9.47 18.43 9.11Q18.35 8.74 18.19 8.52Q18.02 8.30 17.77 8.20Q17.51 8.10 17.14 8.10L17.14 8.10Q16.75 8.10 16.34 8.39Q15.93 8.68 15.60 9.20L15.60 9.20L15.60 22.25L12.63 22.25ZM32.03 3.81L32.03 3.81Q31.21 3.81 30.73 3.32Q30.26 2.82 30.26 1.88L30.26 1.88Q30.26 1.35 30.38 0.99Q30.50 0.63 30.73 0.42Q30.96 0.20 31.29 0.10Q31.62 0 32.04 0L32.04 0Q32.92 0 33.38 0.45Q33.83 0.89 33.83 1.88L33.83 1.88Q33.83 2.79 33.37 3.30Q32.91 3.81 32.03 3.81ZM30.49 22.25L30.49 6.12L33.46 6.12L33.46 22.25L30.49 22.25ZM40.31 22.43L40.31 22.43Q38.27 22.43 37.20 20.75Q36.13 19.08 36.13 15.64L36.13 15.64L36.13 12.60Q36.13 11.06 36.35 9.97Q36.57 8.87 36.94 8.13Q37.31 7.38 37.79 6.95Q38.26 6.52 38.77 6.29Q39.27 6.06 39.76 5.99Q40.25 5.93 40.66 5.93L40.66 5.93Q41.48 5.93 42.16 6.15Q42.84 6.36 43.34 6.80Q43.83 7.24 44.10 7.91Q44.37 8.58 44.37 9.48L44.37 9.48Q44.37 10.04 44.31 10.45Q44.26 10.85 44.17 11.23L44.17 11.23L41.80 11.23L41.80 10.69Q41.80 9.47 41.51 8.78Q41.23 8.10 40.57 8.10L40.57 8.10Q40.21 8.10 39.94 8.27Q39.67 8.44 39.49 8.85Q39.30 9.26 39.22 9.95Q39.13 10.64 39.13 11.68L39.13 11.68L39.13 16.27Q39.13 17.32 39.20 18.06Q39.27 18.80 39.45 19.26Q39.62 19.72 39.91 19.93Q40.21 20.14 40.64 20.14L40.64 20.14Q40.86 20.14 41.07 20.03Q41.29 19.92 41.44 19.66Q41.60 19.41 41.70 18.98Q41.80 18.55 41.80 17.92L41.80 17.92L41.80 17.41L44.36 17.41L44.36 18.04Q44.36 20.33 43.34 21.38Q42.33 22.43 40.31 22.43ZM50.82 22.43L50.82 22.43Q50.31 22.43 49.78 22.35Q49.24 22.27 48.74 22.01Q48.25 21.75 47.81 21.27Q47.37 20.79 47.04 20.00Q46.71 19.22 46.52 18.07Q46.34 16.92 46.34 15.33L46.34 15.33L46.34 12.80Q46.34 11.23 46.53 10.11Q46.72 8.99 47.06 8.23Q47.39 7.46 47.84 7.01Q48.28 6.56 48.78 6.32Q49.28 6.08 49.80 6.01Q50.33 5.93 50.84 5.93L50.84 5.93Q51.32 5.93 51.83 6Q52.35 6.07 52.84 6.30Q53.33 6.53 53.77 6.98Q54.21 7.43 54.54 8.19Q54.88 8.95 55.07 10.08Q55.27 11.21 55.27 12.80L55.27 12.80L55.27 15.33Q55.27 16.90 55.07 18.04Q54.87 19.17 54.53 19.96Q54.19 20.74 53.74 21.23Q53.30 21.71 52.80 21.98Q52.31 22.25 51.80 22.34Q51.29 22.43 50.82 22.43ZM50.85 20.14L50.85 20.14Q51.25 20.14 51.52 19.94Q51.80 19.73 51.97 19.27Q52.14 18.80 52.21 18.03Q52.29 17.26 52.29 16.13L52.29 16.13L52.29 12.15Q52.29 11.02 52.21 10.24Q52.14 9.47 51.97 8.99Q51.80 8.52 51.52 8.31Q51.25 8.10 50.85 8.10L50.85 8.10Q50.43 8.10 50.14 8.31Q49.85 8.52 49.66 8.99Q49.48 9.47 49.39 10.24Q49.31 11.02 49.31 12.15L49.31 12.15L49.31 16.13Q49.31 17.26 49.39 18.03Q49.48 18.80 49.66 19.27Q49.85 19.73 50.14 19.94Q50.43 20.14 50.85 20.14ZM60.98 22.44L60.98 22.44Q60.71 22.44 60.35 22.39Q59.99 22.34 59.60 22.15Q59.21 21.96 58.84 21.59Q58.46 21.21 58.17 20.56Q57.88 19.91 57.70 18.95Q57.52 17.99 57.52 16.62L57.52 16.62L57.52 11.50Q57.52 10.14 57.71 9.20Q57.90 8.26 58.22 7.65Q58.54 7.03 58.93 6.69Q59.32 6.34 59.71 6.18Q60.11 6.01 60.46 5.98Q60.82 5.94 61.05 5.94L61.05 5.94Q61.49 5.94 61.88 6.06Q62.26 6.18 62.58 6.37Q62.89 6.56 63.14 6.80Q63.39 7.04 63.55 7.29L63.55 7.29L63.56 7.28L63.47 5.24L63.47 0.94L66.42 0.94L66.42 22.25L64.11 22.25L63.86 20.75Q63.66 21.07 63.40 21.38Q63.14 21.68 62.79 21.92Q62.44 22.16 61.99 22.30Q61.55 22.44 60.98 22.44ZM61.99 20.14L61.99 20.14Q62.29 20.14 62.51 20.04Q62.74 19.95 62.92 19.79Q63.11 19.63 63.24 19.42Q63.38 19.21 63.47 18.98L63.47 18.98L63.47 9.28Q63.25 8.79 62.88 8.44Q62.51 8.10 61.98 8.10L61.98 8.10Q61.65 8.10 61.38 8.21Q61.11 8.33 60.91 8.65Q60.71 8.98 60.60 9.54Q60.49 10.11 60.49 11.02L60.49 11.02L60.49 17.20Q60.49 18.11 60.60 18.68Q60.71 19.25 60.91 19.58Q61.11 19.90 61.39 20.02Q61.66 20.14 61.99 20.14ZM73.36 22.43L73.36 22.43Q72.32 22.43 71.51 22.04Q70.71 21.66 70.16 20.84Q69.61 20.02 69.33 18.73Q69.05 17.45 69.05 15.64L69.05 15.64L69.05 12.60Q69.05 11.06 69.28 9.97Q69.50 8.87 69.87 8.13Q70.24 7.38 70.73 6.95Q71.21 6.52 71.73 6.29Q72.25 6.06 72.76 5.99Q73.27 5.93 73.70 5.93L73.70 5.93Q74.50 5.93 75.23 6.17Q75.97 6.41 76.54 6.99Q77.10 7.57 77.43 8.54Q77.77 9.52 77.77 10.97L77.77 10.97Q77.77 11.46 77.74 11.96Q77.71 12.47 77.66 12.96Q77.61 13.44 77.54 13.90Q77.46 14.36 77.38 14.74L77.38 14.74L72.02 14.74L72.02 16.38Q72.02 17.44 72.11 18.16Q72.19 18.88 72.38 19.32Q72.57 19.76 72.91 19.95Q73.24 20.14 73.75 20.14L73.75 20.14Q74.02 20.14 74.27 20.03Q74.53 19.92 74.72 19.66Q74.92 19.41 75.04 18.98Q75.15 18.55 75.15 17.92L75.15 17.92L75.15 17.41L77.63 17.41L77.63 18.04Q77.63 20.33 76.53 21.38Q75.43 22.43 73.36 22.43ZM72.02 12.75L75 12.75Q75.01 12.62 75.02 12.40Q75.04 12.19 75.04 11.95Q75.05 11.72 75.05 11.49Q75.05 11.26 75.05 11.10L75.05 11.10Q75.05 9.50 74.67 8.80Q74.30 8.10 73.56 8.10L73.56 8.10Q73.17 8.10 72.88 8.28Q72.59 8.46 72.40 8.89Q72.21 9.32 72.12 10.02Q72.02 10.72 72.02 11.77L72.02 11.77L72.02 12.75ZM80.27 22.25L80.27 6.12L82.44 6.12L82.70 7.76Q83.19 6.84 83.83 6.39Q84.47 5.93 85.14 5.93L85.14 5.93Q86.41 5.93 87.02 6.71Q87.63 7.50 87.63 9.07L87.63 9.07Q87.63 9.27 87.60 9.54Q87.57 9.82 87.52 10.12Q87.47 10.42 87.39 10.72Q87.32 11.02 87.23 11.26L87.23 11.26L85.17 11.26L85.17 9.76Q85.17 9.27 85.11 8.95Q85.04 8.64 84.94 8.44Q84.83 8.25 84.69 8.17Q84.55 8.10 84.39 8.10L84.39 8.10Q84.04 8.10 83.74 8.33Q83.44 8.55 83.24 8.96L83.24 8.96L83.24 22.25L80.27 22.25Z" transform="translate(36, 6.874)"></path></svg>